<?xml version="1.0" encoding="UTF-8"?>
<svg id="Layer_2" data-name="Layer 2" xmlns="http://www.w3.org/2000/svg" viewBox="0 0 1024 1024">
  <defs>
    <style>
      .cls-1 {
        fill: #fff;
      }

      .cls-2 {
        fill: none;
      }

      .cls-3 {
        fill: #507ec0;
      }
    </style>
  </defs>
  <g id="Layer_1-2" data-name="Layer 1">
    <rect class="cls-2" width="1024" height="1024"/>
    <path class="cls-1" d="M936,367.49v-220.32C936,65.89,868.46,0,785.15,0h-13.74c-34.65,0-68.24,11.63-95.13,32.95l-79.73,63.2c-55.42,43.93-134.83,43.93-190.25,0l-79.73-63.2C299.68,11.63,266.09,0,231.44,0h-8.59C139.54,0,72,65.89,72,147.17v220.32c0,81.28,67.54,147.17,150.85,147.17h562.3c83.31,0,150.85-65.89,150.85-147.17Z"/>
    <path class="cls-3" d="M850.79,660.78l-315.45,348.73c-17.49,19.33-45.83,19.33-63.32,0l-314.82-348.02c-28.18-31.16-8.27-84.43,31.58-84.49,162.93-.27,469.1-1.54,630.57-.7,39.79.21,59.57,53.39,31.44,84.49Z"/>
  </g>
</svg>